<svg width="64" height="76" viewBox="0 0 64 76" fill="none" xmlns="http://www.w3.org/2000/svg">
<path d="M2 67.3584C1.99976 67.677 2.08404 67.9903 2.2448 68.2685C2.40557 68.5466 2.63744 68.7803 2.91827 68.9472C3.19911 69.1141 3.51953 69.2087 3.84895 69.2218C4.17836 69.235 4.50577 69.1663 4.7999 69.0224C7.51439 67.7341 10.5491 67.2095 13.5574 67.5084C16.5657 67.8074 19.4264 68.9178 21.8128 70.713C24.6451 72.8433 28.1318 74 31.7209 74C35.3101 74 38.7967 72.8433 41.629 70.713C44.0154 68.9178 46.8761 67.8074 49.8844 67.5084C52.8928 67.2095 55.9275 67.7341 58.642 69.0224C58.9361 69.1663 59.2635 69.235 59.5929 69.2218C59.9223 69.2087 60.2428 69.1141 60.5236 68.9472C60.8044 68.7803 61.0363 68.5466 61.1971 68.2685C61.3578 67.9903 61.4421 67.677 61.4419 67.3584V30.7172C61.4419 26.9457 60.6731 23.2112 59.1794 19.7268C57.6858 16.2425 55.4965 13.0766 52.7366 10.4099C49.9767 7.74322 46.7003 5.62799 43.0944 4.18501C39.4885 2.74203 35.6238 1.99956 31.7209 2C27.8181 1.99956 23.9534 2.74203 20.3475 4.18501C16.7416 5.62799 13.4652 7.74322 10.7053 10.4099C7.94538 13.0766 5.7561 16.2425 4.26244 19.7268C2.76878 23.2112 2 26.9457 2 30.7172V67.3584Z" fill="white" stroke="black" stroke-width="4" stroke-linecap="round" stroke-linejoin="round"/>
<path d="M18.9325 25.0461C21.4976 25.0461 23.578 27.1263 23.578 29.6926C23.5779 32.2588 21.4975 34.3381 18.9325 34.3381C16.3678 34.3379 14.2882 32.2586 14.288 29.6926C14.288 27.1265 16.3677 25.0464 18.9325 25.0461Z" fill="black" stroke="black" stroke-width="4"/>
<path d="M40.5116 30.4651C44.4408 28.2232 46.7359 28.2419 50.5581 30.4651" stroke="black" stroke-width="5" stroke-linecap="round"/>
</svg>
